<?xml version="1.0" standalone="no"?>
<!DOCTYPE svg PUBLIC "-//W3C//DTD SVG 20010904//EN"
 "http://www.w3.org/TR/2001/REC-SVG-20010904/DTD/svg10.dtd">
<svg version="1.0" xmlns="http://www.w3.org/2000/svg"
 width="1280.000000pt" height="1280.000000pt" viewBox="0 0 1280.000000 1280.000000"
 preserveAspectRatio="xMidYMid meet">
<metadata>
Created by potrace 1.14, written by Peter Selinger 2001-2017
</metadata>
<g transform="translate(0.000000,1280.000000) scale(0.100000,-0.100000)"
fill="#000000" stroke="none">
<path d="M6555 12764 c-93 -7 -192 -18 -218 -23 -27 -6 -60 -11 -75 -11 -14 0
-39 -4 -56 -9 -17 -5 -65 -16 -106 -25 -112 -25 -317 -87 -395 -121 -16 -7
-50 -20 -75 -30 -115 -43 -363 -175 -485 -258 -222 -152 -376 -283 -555 -473
-276 -295 -519 -712 -630 -1084 -12 -41 -26 -86 -30 -100 -43 -126 -83 -365
-101 -598 -10 -130 -10 -194 0 -325 16 -194 50 -411 84 -532 8 -27 22 -77 31
-110 47 -170 147 -403 247 -575 72 -122 68 -115 143 -223 38 -54 67 -99 65
-101 -2 -1 -38 -9 -79 -16 -41 -7 -84 -16 -95 -20 -76 -29 -114 -46 -140 -65
-16 -11 -42 -26 -57 -34 -14 -7 -65 -49 -112 -93 -168 -156 -287 -379 -331
-623 -9 -49 -20 -109 -26 -133 -5 -23 -9 -52 -9 -63 0 -40 -75 -144 -180 -250
-122 -123 -267 -240 -540 -434 -504 -358 -616 -456 -744 -655 -36 -56 -86
-166 -86 -189 0 -9 -4 -21 -9 -27 -10 -10 -18 -60 -27 -178 -7 -76 4 -174 27
-261 73 -267 265 -500 514 -625 96 -48 157 -66 288 -84 81 -11 113 -11 195 0
169 24 238 45 422 132 198 93 416 273 547 449 32 43 62 80 67 83 13 8 26 -40
101 -365 7 -33 18 -85 24 -115 6 -30 20 -100 32 -155 11 -55 24 -127 28 -160
5 -33 11 -71 14 -85 31 -137 87 -652 107 -980 24 -406 54 -653 91 -748 5 -13
9 -30 9 -38 0 -32 111 -244 169 -322 34 -45 85 -101 115 -124 l55 -42 -18 -31
c-124 -204 -185 -376 -226 -634 -36 -227 4 -436 113 -583 124 -169 313 -268
508 -268 l51 0 37 -59 c67 -109 199 -212 331 -259 59 -21 138 -32 228 -32 182
1 333 61 508 201 l26 21 41 -25 c72 -46 134 -61 230 -54 118 8 223 46 335 120
126 84 219 201 262 332 22 66 27 102 29 205 l3 125 79 -3 c80 -3 286 12 315
23 14 5 17 -5 21 -64 6 -77 32 -134 89 -189 36 -35 104 -71 151 -81 23 -5 37
-18 58 -55 36 -65 100 -128 162 -160 43 -23 62 -26 143 -26 52 0 104 4 117 9
13 4 50 17 83 27 232 71 492 327 690 679 57 101 192 372 219 440 16 39 34 84
41 100 24 58 71 206 94 300 5 22 13 70 16 107 7 61 11 70 54 116 42 44 108
144 179 267 64 111 155 323 201 464 26 81 35 109 66 221 14 50 31 119 40 165
25 134 36 202 46 280 12 104 20 122 94 230 96 139 196 371 233 540 56 258 62
317 62 618 0 301 -3 330 -61 672 -12 67 -36 174 -49 220 -5 17 -16 59 -25 95
-15 60 -77 258 -95 305 -9 23 -39 101 -50 130 -147 378 -330 721 -553 1040
-142 202 -293 381 -486 578 -75 76 -137 142 -139 147 -2 5 16 36 41 67 127
166 316 517 378 703 10 30 25 75 35 100 38 105 89 321 113 475 42 282 42 506
0 830 -11 88 -36 216 -50 255 -4 14 -17 59 -28 100 -38 144 -129 381 -184 480
-11 19 -33 60 -49 90 -15 30 -34 64 -41 75 -80 129 -107 170 -150 230 -77 105
-192 240 -282 330 -115 114 -370 325 -393 325 -5 0 -15 7 -22 15 -12 14 -116
79 -215 135 -61 35 -246 125 -285 139 -19 7 -59 24 -88 37 -29 13 -56 24 -60
24 -4 0 -49 13 -98 29 -79 26 -154 45 -319 81 -98 21 -183 31 -370 45 -110 8
-207 14 -215 14 -8 -1 -91 -8 -185 -15z m-660 -1514 c115 -29 219 -83 285
-150 108 -109 197 -313 216 -492 6 -58 4 -70 -20 -112 -90 -161 -134 -356
-115 -511 31 -256 177 -490 413 -664 77 -57 228 -135 321 -167 73 -24 94 -27
235 -28 147 -1 159 1 230 28 41 15 106 49 145 74 73 49 325 258 325 270 0 4
15 23 33 42 55 58 113 142 132 190 49 128 20 441 -74 780 -49 174 -49 174 -41
221 17 103 97 264 162 325 157 148 427 148 593 2 84 -74 175 -230 210 -359 43
-160 75 -399 75 -564 0 -125 -47 -660 -65 -743 -3 -15 -10 -58 -15 -97 -16
-109 -53 -289 -91 -440 -12 -44 -24 -96 -29 -115 -20 -93 -98 -367 -111 -392
-5 -10 -9 -27 -9 -37 0 -11 -4 -22 -9 -25 -4 -3 -91 18 -192 48 -757 220
-1544 277 -2284 165 -115 -17 -364 -68 -460 -93 -96 -26 -302 -92 -373 -121
-50 -20 -55 -18 -115 65 -23 30 -44 57 -49 58 -4 2 -8 8 -8 13 0 5 -15 30 -34
56 -19 27 -63 100 -98 163 -63 114 -72 133 -101 200 -8 19 -24 55 -35 80 -55
126 -118 319 -156 480 -63 270 -65 671 -5 955 10 47 15 67 50 185 40 141 150
335 253 447 166 181 419 288 661 279 55 -2 123 -10 150 -16z m1300 -2780 c312
-13 504 -37 840 -102 105 -20 332 -73 375 -87 14 -5 45 -14 70 -21 25 -7 84
-26 132 -41 48 -16 97 -29 109 -29 42 0 107 -50 186 -142 258 -302 521 -666
693 -958 40 -69 85 -146 100 -171 64 -107 280 -557 280 -583 0 -7 4 -16 9 -21
10 -11 89 -238 127 -365 26 -89 71 -294 86 -395 16 -112 21 -434 8 -525 -19
-127 -76 -340 -91 -340 -9 0 -16 42 -29 155 -8 80 -19 156 -50 345 -5 30 -16
87 -25 125 -9 39 -18 84 -21 100 -3 17 -9 46 -14 65 -5 19 -21 82 -35 140 -40
158 -162 561 -186 610 -11 24 -109 278 -109 284 0 6 -10 27 -113 251 -83 178
-237 476 -300 580 -7 11 -27 43 -44 72 -18 30 -33 56 -33 60 0 3 -11 21 -26
40 -29 38 -71 44 -98 14 -23 -25 -18 -38 51 -153 233 -386 422 -784 567 -1195
14 -40 37 -103 50 -140 28 -81 67 -208 97 -318 12 -44 26 -96 31 -115 10 -39
18 -69 43 -180 68 -298 70 -358 20 -575 -46 -198 -60 -252 -96 -359 -65 -193
-181 -424 -298 -591 -223 -320 -630 -553 -1151 -658 -72 -14 -117 -21 -345
-48 -55 -6 -276 -14 -492 -16 -378 -5 -472 -2 -743 28 -52 6 -135 14 -185 19
-349 33 -426 50 -600 131 -175 81 -406 271 -560 459 -53 66 -195 265 -195 274
0 3 -15 29 -33 58 -36 56 -124 230 -170 335 -120 276 -224 638 -276 963 -6 36
-15 95 -21 131 -5 37 -17 149 -25 250 -45 558 17 1120 179 1614 77 232 177
449 285 615 30 47 60 94 66 105 8 14 19 19 40 17 17 -1 62 9 100 24 161 60
438 139 605 173 274 55 469 79 715 91 234 10 269 10 500 0z m-2692 -880 c30
-11 64 -31 77 -45 l23 -25 -28 -67 c-15 -38 -36 -87 -47 -111 -10 -24 -21 -57
-25 -73 -3 -16 -10 -32 -14 -35 -5 -3 -9 -15 -9 -28 0 -12 -4 -26 -8 -32 -8
-8 -24 -64 -53 -174 -4 -19 -16 -62 -25 -95 -21 -77 -29 -112 -49 -210 -9 -44
-20 -98 -25 -120 -5 -22 -16 -83 -25 -135 -9 -52 -21 -109 -26 -126 -5 -17 -9
-42 -9 -56 0 -14 -4 -38 -9 -54 -5 -16 -16 -72 -25 -124 -18 -102 -18 -102
-71 -320 -76 -315 -141 -481 -258 -652 -51 -76 -61 -81 -38 -16 38 102 62 204
77 328 20 165 12 247 -57 630 -6 30 -17 98 -25 150 -9 52 -20 120 -25 150 -20
126 -31 315 -26 475 3 141 9 188 31 278 60 237 193 400 394 483 76 31 197 33
275 4z"/>
<path d="M5756 10636 c-81 -30 -146 -103 -166 -185 -24 -100 40 -219 144 -267
88 -41 176 -28 251 38 133 117 105 323 -54 403 -47 23 -128 28 -175 11z"/>
<path d="M8430 10590 c-55 -11 -82 -25 -121 -62 -48 -45 -69 -88 -76 -153 -8
-73 17 -141 70 -193 53 -52 101 -72 174 -72 175 0 295 198 211 349 -55 99
-157 151 -258 131z"/>
</g>
</svg>
